<svg xmlns="http://www.w3.org/2000/svg" width="18.501" height="18.5" viewBox="0 0 18.501 18.5">
  <g id="tick" transform="translate(-0.001 -0.5)">
    <path id="Path_2146" data-name="Path 2146" d="M64.225,61.522a.36.36,0,0,0-.162.7,4.924,4.924,0,1,1-2.66.12.36.36,0,1,0-.225-.685,5.591,5.591,0,0,0-2.225,1.371,5.649,5.649,0,1,0,5.273-1.509Zm0,0" transform="translate(-55.229 -58.808)" fill="#2e3192" fill-rule="evenodd"/>
    <path id="Path_2147" data-name="Path 2147" d="M18.011,16.136l-3.777-3.777a7.714,7.714,0,1,0-2.374,2.374l3.777,3.777a1.679,1.679,0,0,0,2.374-2.374ZM17.5,18a.962.962,0,0,1-1.355,0L12.16,14.015a.361.361,0,0,0-.46-.041,7,7,0,0,1-8.929-10.7,7,7,0,0,1,10.7,8.929.36.36,0,0,0,.041.46L17.5,16.646A.959.959,0,0,1,17.5,18Zm0,0" fill="#2e3192" fill-rule="evenodd"/>
    <path id="Path_2148" data-name="Path 2148" d="M129.154,156.3a.36.36,0,0,0,0,.51l1.8,1.8a.361.361,0,0,0,.51,0l3.592-3.593a.36.36,0,0,0-.51-.51l-3.338,3.338-1.541-1.541A.36.36,0,0,0,129.154,156.3Zm0,0" transform="translate(-124.384 -148.342)" fill="#2e3192" fill-rule="evenodd"/>
    <path id="Path_2149" data-name="Path 2149" d="M197.361,58.6a.36.36,0,1,0-.36-.361A.361.361,0,0,0,197.361,58.6Zm0,0" transform="translate(-189.881 -55.305)" fill="#2e3192" fill-rule="evenodd"/>
  </g>
</svg>
