<svg xmlns="http://www.w3.org/2000/svg" width="20.109" height="21.45" viewBox="0 0 20.109 21.45">
  <defs>
    <style>
      .cls-1 {
        fill: #fff;
      }
    </style>
  </defs>
  <g id="upload_3_" data-name="upload (3)" transform="translate(-16)">
    <g id="Group_3428" data-name="Group 3428" transform="translate(20.692)">
      <g id="Group_3427" data-name="Group 3427" transform="translate(0)">
        <path id="Path_2071" data-name="Path 2071" class="cls-1" d="M138.557,5.592,133.865.229a.669.669,0,0,0-1.008,0l-4.692,5.362a.67.67,0,0,0,.5,1.111h2.681v8.714a.671.671,0,0,0,.67.67H134.7a.671.671,0,0,0,.67-.67V6.7h2.681a.67.67,0,0,0,.5-1.111Z" transform="translate(-127.998 0)"/>
      </g>
    </g>
    <g id="Group_3430" data-name="Group 3430" transform="translate(16 14.747)">
      <g id="Group_3429" data-name="Group 3429" transform="translate(0)">
        <path id="Path_2072" data-name="Path 2072" class="cls-1" d="M33.428,352v4.022H18.681V352H16v5.362a1.34,1.34,0,0,0,1.341,1.341H34.769a1.339,1.339,0,0,0,1.341-1.341V352Z" transform="translate(-16 -352)"/>
      </g>
    </g>
  </g>
</svg>
