<svg xmlns="http://www.w3.org/2000/svg" width="18.052" height="17.104" viewBox="0 0 18.052 17.104">
  <g id="Group_3778" data-name="Group 3778" transform="translate(-1225 -423.896)">
    <g id="edit_1_" data-name="edit (1)" transform="translate(1225 422.731)">
      <path id="Path_2034" data-name="Path 2034" d="M17.578,29.214a.474.474,0,0,0-.474.474V33.9a1.425,1.425,0,0,1-1.423,1.423H2.372A1.425,1.425,0,0,1,.949,33.9V21.54a1.425,1.425,0,0,1,1.423-1.423H6.583a.474.474,0,1,0,0-.949H2.372A2.374,2.374,0,0,0,0,21.54V33.9a2.374,2.374,0,0,0,2.372,2.372H15.681A2.374,2.374,0,0,0,18.052,33.9V29.688A.474.474,0,0,0,17.578,29.214Zm0,0" transform="translate(0 -18.003)" fill="#2e3192"/>
    </g>
    <path id="Path_2160" data-name="Path 2160" d="M3.821,6.048,0,2.034,1.235.737,3.821,3.393,11.9-4.5l1.094,1.188Z" transform="translate(1230 429.637)" fill="#2e3192"/>
  </g>
</svg>
