<svg xmlns="http://www.w3.org/2000/svg" width="15.675" height="17.525" viewBox="0 0 15.675 17.525">
    <g data-name="Group 2906">
        <g data-name="Group 2905">
            <path d="M13.485 2.841a.342.342 0 0 0-.342.342v3.354a.343.343 0 0 1-.342.342H1.027a.343.343 0 0 1-.342-.342v-6.2a.343.343 0 0 0-.685 0v6.2a1.028 1.028 0 0 0 1.027 1.027h11.774a1.028 1.028 0 0 0 1.027-1.027V3.183a.342.342 0 0 0-.343-.342z" data-name="Path 334" transform="translate(0 9.961)"/>
        </g>
    </g>
    <g data-name="Group 2908">
        <g data-name="Group 2907">
            <path d="M14.829 6.406a2.876 2.876 0 0 0-1-.651V3.7a.341.341 0 0 0-.1-.242L10.375.1a.341.341 0 0 0-.242-.1h-9.1A1.028 1.028 0 0 0 .006 1.027V7.4a.343.343 0 1 0 .685 0V1.027a.343.343 0 0 1 .342-.342h8.762v2.327a1.028 1.028 0 0 0 1.027 1.027h2.327v1.544a2.889 2.889 0 0 0-2.406.823l-4.878 4.878a.342.342 0 0 0 .484.484l4.872-4.878a2.209 2.209 0 0 1 3.124 3.124L9.77 14.589a1.377 1.377 0 1 1-1.948-1.948l4.6-4.6a.536.536 0 1 1 .753.759l-4.144 4.144a.342.342 0 0 0 .484.484l4.144-4.144a1.221 1.221 0 1 0-1.724-1.724l-4.6 4.6a2.062 2.062 0 0 0 2.916 2.916l4.578-4.576a2.9 2.9 0 0 0 0-4.094zm-4.013-3.052a.343.343 0 0 1-.342-.342V1.169l2.185 2.185z" data-name="Path 335"/>
        </g>
    </g>
    <g data-name="Group 2910">
        <g data-name="Group 2909">
            <path d="M.584.1a.342.342 0 1 0 .1.242.345.345 0 0 0-.1-.242z" data-name="Path 336" transform="translate(0 8.53)"/>
        </g>
    </g>
    <g data-name="Group 2912">
        <g data-name="Group 2911">
            <path d="M.675.258L.668.237a.342.342 0 1 0-.651.211l.007.021A.342.342 0 1 0 .675.258z" data-name="Path 337" transform="translate(4.662 12.214)"/>
        </g>
    </g>
</svg>
