<svg xmlns="http://www.w3.org/2000/svg" width="19.236" height="19.215" viewBox="0 0 19.236 19.215">
  <g id="data" transform="translate(0 -0.5)" opacity="0.8">
    <path id="Path_2091" data-name="Path 2091" d="M34.238,129.516a.282.282,0,0,0,.4-.4l-.684-.684.684-.683a.282.282,0,0,0-.4-.4l-.883.883a.282.282,0,0,0,0,.4Zm0,0" transform="translate(-32.024 -122.008)" fill="#172b4d"/>
    <path id="Path_2092" data-name="Path 2092" d="M113.7,128.431l-.684.684a.282.282,0,1,0,.4.4l.883-.883a.281.281,0,0,0,0-.4l-.883-.883a.281.281,0,1,0-.4.4Zm0,0" transform="translate(-108.688 -122.004)" fill="#172b4d"/>
    <path id="Path_2093" data-name="Path 2093" d="M76.6,129.574a.281.281,0,0,0,.365-.159l.693-1.765a.281.281,0,1,0-.524-.206l-.694,1.765A.282.282,0,0,0,76.6,129.574Zm0,0" transform="translate(-73.547 -122.003)" fill="#172b4d"/>
    <path id="Path_2094" data-name="Path 2094" d="M37.8,218.778h1.9a.282.282,0,0,0,0-.563H37.8a.282.282,0,0,0,0,.563Zm0,0" transform="translate(-36.107 -209.535)" fill="#172b4d"/>
    <path id="Path_2095" data-name="Path 2095" d="M119.128,218.215h-3.334a.282.282,0,0,0,0,.563h3.334a.282.282,0,1,0,0-.563Zm0,0" transform="translate(-111.172 -209.536)" fill="#172b4d"/>
    <path id="Path_2096" data-name="Path 2096" d="M37.8,250.384h.808a.282.282,0,0,0,0-.563H37.8a.282.282,0,0,0,0,.563Zm0,0" transform="translate(-36.107 -239.954)" fill="#172b4d"/>
    <path id="Path_2097" data-name="Path 2097" d="M177.129,249.82a.282.282,0,0,0,0,.563h.492a.282.282,0,1,0,0-.563Zm0,0" transform="translate(-170.204 -239.953)" fill="#172b4d"/>
    <path id="Path_2098" data-name="Path 2098" d="M88.292,250.1a.282.282,0,0,0-.281-.281H85.594a.282.282,0,0,0,0,.563H88.01A.282.282,0,0,0,88.292,250.1Zm0,0" transform="translate(-82.108 -239.954)" fill="#172b4d"/>
    <path id="Path_2099" data-name="Path 2099" d="M213.7,250.1a.282.282,0,0,0,.281.282h.921a.282.282,0,1,0,0-.563h-.921A.282.282,0,0,0,213.7,250.1Zm0,0" transform="translate(-205.675 -239.954)" fill="#172b4d"/>
    <path id="Path_2100" data-name="Path 2100" d="M165.681,149.841h.972a.282.282,0,1,0,0-.563h-.972a.282.282,0,1,0,0,.563Zm0,0" transform="translate(-159.185 -143.188)" fill="#172b4d"/>
    <path id="Path_2101" data-name="Path 2101" d="M220.528,149.841h5.931a.282.282,0,0,0,0-.563h-5.931a.282.282,0,1,0,0,.563Zm0,0" transform="translate(-211.972 -143.188)" fill="#172b4d"/>
    <path id="Path_2102" data-name="Path 2102" d="M292.867,182.246h-2.4a.282.282,0,0,0,0,.563h2.4a.282.282,0,0,0,0-.563Zm0,0" transform="translate(-279.282 -174.918)" fill="#172b4d"/>
    <path id="Path_2103" data-name="Path 2103" d="M245.334,182.246h-.826a.282.282,0,0,0,0,.563h.826a.282.282,0,0,0,0-.563Zm0,0" transform="translate(-235.051 -174.918)" fill="#172b4d"/>
    <path id="Path_2104" data-name="Path 2104" d="M165.681,182.809H167.7a.282.282,0,0,0,0-.563h-2.023a.282.282,0,1,0,0,.563Zm0,0" transform="translate(-159.185 -174.918)" fill="#172b4d"/>
    <path id="Path_2105" data-name="Path 2105" d="M101.424,281.16h-1.9a.281.281,0,1,0,0,.563h1.9a.281.281,0,1,0,0-.563Zm0,0" transform="translate(-95.518 -270.116)" fill="#172b4d"/>
    <path id="Path_2106" data-name="Path 2106" d="M39.254,281.16H37.8a.281.281,0,1,0,0,.563h1.457a.281.281,0,1,0,0-.563Zm0,0" transform="translate(-36.107 -270.116)" fill="#172b4d"/>
    <path id="Path_2107" data-name="Path 2107" d="M178.048,281.16h-2.477a.281.281,0,1,0,0,.563h2.477a.281.281,0,1,0,0-.563Zm0,0" transform="translate(-168.704 -270.116)" fill="#172b4d"/>
    <path id="Path_2108" data-name="Path 2108" d="M295.983,242.668h-1.355a.282.282,0,0,0,0,.563h1.355a.282.282,0,0,0,0-.563Zm0,0" transform="translate(-283.289 -233.07)" fill="#172b4d"/>
    <path id="Path_2109" data-name="Path 2109" d="M393.258,243.231h1.912a.282.282,0,1,0,0-.563h-1.912a.282.282,0,0,0,0,.563Zm0,0" transform="translate(-378.213 -233.07)" fill="#172b4d"/>
    <path id="Path_2110" data-name="Path 2110" d="M356.576,242.668h-.438a.282.282,0,1,0,0,.563h.438a.282.282,0,0,0,0-.563Zm0,0" transform="translate(-342.487 -233.07)" fill="#172b4d"/>
    <path id="Path_2111" data-name="Path 2111" d="M294.629,324.892h1.355a.281.281,0,1,0,0-.563h-1.355a.281.281,0,0,0,0,.563Zm0,0" transform="translate(-283.29 -311.662)" fill="#172b4d"/>
    <path id="Path_2112" data-name="Path 2112" d="M393.258,324.892h1.912a.281.281,0,1,0,0-.563h-1.912a.281.281,0,1,0,0,.563Zm0,0" transform="translate(-378.213 -311.662)" fill="#172b4d"/>
    <path id="Path_2113" data-name="Path 2113" d="M356.141,324.892h.438a.281.281,0,1,0,0-.563h-.438a.281.281,0,0,0,0,.563Zm0,0" transform="translate(-342.491 -311.662)" fill="#172b4d"/>
    <path id="Path_2114" data-name="Path 2114" d="M295.983,405.988h-1.355a.281.281,0,1,0,0,.563h1.355a.281.281,0,1,0,0-.563Zm0,0" transform="translate(-283.289 -390.254)" fill="#172b4d"/>
    <path id="Path_2115" data-name="Path 2115" d="M395.17,405.988h-1.912a.281.281,0,1,0,0,.563h1.912a.281.281,0,1,0,0-.563Zm0,0" transform="translate(-378.213 -390.254)" fill="#172b4d"/>
    <path id="Path_2116" data-name="Path 2116" d="M356.576,405.988h-.438a.281.281,0,1,0,0,.563h.438a.281.281,0,0,0,0-.563Zm0,0" transform="translate(-342.487 -390.254)" fill="#172b4d"/>
    <path id="Path_2117" data-name="Path 2117" d="M18,.5H1.239A1.24,1.24,0,0,0,0,1.739V15.361A1.24,1.24,0,0,0,1.239,16.6H2.3a.281.281,0,1,0,0-.563H1.239a.677.677,0,0,1-.676-.676V14.293H10.819v.485H10.6a.554.554,0,0,0-.554.554v.705H4.01a.281.281,0,1,0,0,.563H6.717v1.01h-.85a1.03,1.03,0,0,0-1.028,1.028v.608a.47.47,0,0,0,.469.469h8.6a.47.47,0,0,0,.469-.469v-.608a1.03,1.03,0,0,0-1.028-1.028H12.5v-.356h5.2a.554.554,0,0,0,.554-.554v-.133a1.241,1.241,0,0,0,.959-1.207l.021-13.622A1.24,1.24,0,0,0,18,.5ZM10.605,13.622V12.273h7.087v1.349Zm.777-1.913v-.592h5.533v.592Zm5.533,2.476v.592H11.382v-.592ZM7.279,16.6h2.763v.1a.554.554,0,0,0,.554.554h1.338v.356H7.279Zm6.068,1.573a.466.466,0,0,1,.465.465v.514H5.4v-.514a.466.466,0,0,1,.465-.465Zm4.345-1.482H10.605V15.341h7.087Zm.959-1.33a.676.676,0,0,1-.4.614v-.644a.554.554,0,0,0-.554-.554h-.223v-.485h1.173Zm0-1.631h-.405c.006-.032.009-1.466.009-1.466a.554.554,0,0,0-.554-.554h-.223v-.592H17.7a.554.554,0,0,0,.554-.554V9.2a.554.554,0,0,0-.554-.554h-1.59a.282.282,0,0,0,0,.563h1.581v1.349H10.605V9.205H14.36a.282.282,0,0,0,0-.563H10.6a.554.554,0,0,0-.554.554v1.368a.554.554,0,0,0,.554.554h.223v.592H10.6a.554.554,0,0,0-.554.554s0,1.434.009,1.466H.563v-9.4H18.651Zm0-9.963H.583V1.739a.677.677,0,0,1,.676-.676H17.975a.677.677,0,0,1,.676.676Zm0,0" fill="#172b4d"/>
    <path id="Path_2118" data-name="Path 2118" d="M34.1,29.262a.826.826,0,1,0,.826.826A.827.827,0,0,0,34.1,29.262Zm0,1.089a.263.263,0,1,1,.263-.263A.263.263,0,0,1,34.1,30.351Zm0,0" transform="translate(-32.024 -27.681)" fill="#172b4d"/>
    <path id="Path_2119" data-name="Path 2119" d="M90.084,29.262a.826.826,0,1,0,.826.826A.827.827,0,0,0,90.084,29.262Zm0,1.089a.263.263,0,1,1,.263-.263A.263.263,0,0,1,90.084,30.351Zm0,0" transform="translate(-85.905 -27.681)" fill="#172b4d"/>
    <path id="Path_2120" data-name="Path 2120" d="M146.072,29.262a.826.826,0,1,0,.826.826A.827.827,0,0,0,146.072,29.262Zm0,1.089a.263.263,0,1,1,.263-.263A.263.263,0,0,1,146.072,30.351Zm0,0" transform="translate(-139.789 -27.681)" fill="#172b4d"/>
  </g>
</svg>
