<svg xmlns="http://www.w3.org/2000/svg" width="19.235" height="22.153" viewBox="0 0 19.235 22.153">
  <g id="blood-donation" transform="translate(-33.724)" opacity="0.8">
    <path id="Path_2125" data-name="Path 2125" d="M192.07,160.628a.322.322,0,0,0,.029.025l.019.015a.487.487,0,0,0,.291.13h.025a.489.489,0,0,0,.294-.131l.018-.014a.319.319,0,0,0,.029-.025l1.442-1.429.2-.195,0,0a1.652,1.652,0,0,0,0-2.275,1.456,1.456,0,0,0-2,0,1.456,1.456,0,0,0-1.995,0,1.653,1.653,0,0,0,0,2.275l.006.006Zm-1.175-3.454a.85.85,0,0,1,1.169.1l.059.055a.421.421,0,0,0,.3.146.426.426,0,0,0,.3-.147l.058-.053a.851.851,0,0,1,1.17-.1,1,1,0,0,1,0,1.372l-1.53,1.517-1.337-1.326-.194-.192A1,1,0,0,1,190.9,157.174Z" transform="translate(-149.489 -149.565)" fill="#172b4d"/>
    <path id="Path_2126" data-name="Path 2126" d="M134.384,12.516a5.319,5.319,0,0,0,6.748,0,4.645,4.645,0,0,0,1.548-3.625c0-2.133-2.26-5.448-3.755-7.641-.191-.28-.371-.545-.522-.772-.165-.248-.358-.477-.644-.477s-.479.229-.644.478c-.227.341-.459.685-.684,1.017-.721,1.066-1.466,2.167-2.122,3.326a.325.325,0,1,0,.565.32c.643-1.136,1.381-2.227,2.094-3.282.226-.333.459-.678.687-1.021a1.647,1.647,0,0,1,.1-.142,1.651,1.651,0,0,1,.1.142c.153.23.334.5.526.777,1.362,2,3.642,5.342,3.642,7.275a4.274,4.274,0,0,1-8.545,0,6.17,6.17,0,0,1,.691-2.409.325.325,0,0,0-.589-.273,6.674,6.674,0,0,0-.751,2.681,4.645,4.645,0,0,0,1.548,3.625Z" transform="translate(-94.824)" fill="#172b4d"/>
    <path id="Path_2127" data-name="Path 2127" d="M52.752,327.516a1.208,1.208,0,0,0-.566-.484c.018-.03.034-.061.05-.093a1.129,1.129,0,0,0-.534-1.51,1.154,1.154,0,0,0-.889-.042l0,0-1.132.422a1.12,1.12,0,0,0-.647-1.1,1.155,1.155,0,0,0-.881-.039l0,0-2.093.781a1.078,1.078,0,0,0-.613-1.034,1.1,1.1,0,0,0-.851-.038l-3.79,1.405c-.148-.055-.285-.111-.418-.167a3.584,3.584,0,0,0-3.106,0,.892.892,0,0,0-.878-.744H34.616a.893.893,0,0,0-.892.892v1.719a.325.325,0,0,0,.649,0V325.76a.243.243,0,0,1,.243-.243h1.779a.246.246,0,0,1,.243.243v5.2a.246.246,0,0,1-.243.243H34.616a.243.243,0,0,1-.243-.243v-1.868a.325.325,0,0,0-.649,0v1.868a.893.893,0,0,0,.892.892h1.779a.893.893,0,0,0,.865-.68,8.9,8.9,0,0,1,2.7.481l2.039.609a5.118,5.118,0,0,0,1.388.169,5.231,5.231,0,0,0,1.458-.183c1.044-.323,2.7-.956,3.363-1.223l4.066-1.656a1.084,1.084,0,0,0,.622-.686A1.432,1.432,0,0,0,52.752,327.516ZM51.034,326a.509.509,0,0,1,.39.018.485.485,0,0,1-.049.893l-.005,0-4.913,1.829a1.468,1.468,0,0,0-.034-.339,1.372,1.372,0,0,0-.279-.579Zm-2.665-.72a.51.51,0,0,1,.387.017.476.476,0,0,1,.249.273.491.491,0,0,1-.178.56l-3.378,1.26-1.421-.49Zm-3.56-.29a.455.455,0,0,1,.35.015.424.424,0,0,1,.22.243.434.434,0,0,1-.264.554h0l-2.051.765-1.3-.448Zm7.467,3.494a.446.446,0,0,1-.249.287l-4.066,1.656c-.649.263-2.286.887-3.31,1.2a5.158,5.158,0,0,1-2.468.013l-2.039-.609a9.532,9.532,0,0,0-2.857-.508v-4.23c1.635-.582,2.122-.38,2.843-.079.174.072.353.147.564.22l4.654,1.6.01,0a.652.652,0,0,1,.431.5.734.734,0,0,1-.2.707,1.3,1.3,0,0,1-1.281.073l-2.868-.946a.325.325,0,0,0-.2.616l2.868.946a2.8,2.8,0,0,0,.878.156,1.508,1.508,0,0,0,1.041-.363,1.282,1.282,0,0,0,.181-.2l5-1.86.01,0a.789.789,0,0,1,.991.194.778.778,0,0,1,.076.625Z" transform="translate(0 -310.278)" fill="#172b4d"/>
  </g>
</svg>
