<svg xmlns="http://www.w3.org/2000/svg" width="16.621" height="19.362" viewBox="0 0 16.621 19.362">
    <path id="prefix__filter" fill="#0f0f0f" d="M39.549 19.362a.614.614 0 0 1-.326-.087.649.649 0 0 1-.326-.566v-8.463l-5.808-6.4a.691.691 0 0 1-.174-.435V.653A.641.641 0 0 1 33.567 0h15.315a.641.641 0 0 1 .653.653v2.762a.647.647 0 0 1-.174.435l-5.809 6.4v6.548a.649.649 0 0 1-.326.566l-3.35 1.914a.614.614 0 0 1-.327.084zm-5.33-16.208l5.809 6.374a.691.691 0 0 1 .174.435v7.592l2.045-1.175v-6.4a.647.647 0 0 1 .174-.435l5.809-6.4v-1.84H34.219z" transform="translate(-32.914)"/>
</svg>
