<svg xmlns="http://www.w3.org/2000/svg" width="19.271" height="19.271" viewBox="0 0 19.271 19.271">
  <g id="information-management" transform="translate(-1 -1)" opacity="0.8">
    <path id="Path_2077" data-name="Path 2077" d="M16.865,30.487h-.622V28.622h.622V28H15v.622h.622v1.865H15v.622h1.865Z" transform="translate(-9.649 -18.608)" fill="#172b4d"/>
    <path id="Path_2078" data-name="Path 2078" d="M13.081,22.041a4.041,4.041,0,1,0-4.041,4.041A4.045,4.045,0,0,0,13.081,22.041Zm-7.46,0A3.419,3.419,0,1,1,9.041,25.46,3.423,3.423,0,0,1,5.622,22.041Z" transform="translate(-2.757 -11.716)" fill="#172b4d"/>
    <path id="Path_2079" data-name="Path 2079" d="M17,24h.622v.622H17Z" transform="translate(-11.027 -15.851)" fill="#172b4d"/>
    <path id="Path_2080" data-name="Path 2080" d="M19.027,2.243H11.233a2.482,2.482,0,0,0-4.311.015,1.551,1.551,0,0,0-2.5,1.228c0,.015,0,.029,0,.043a1.237,1.237,0,0,0-.548,2.1,5.279,5.279,0,0,0,.856,9.746v3.653a1.245,1.245,0,0,0,1.243,1.243h.622a1.245,1.245,0,0,0,1.243-1.243V15.374A5.252,5.252,0,0,0,9.081,14.8v4.228a1.245,1.245,0,0,0,1.243,1.243h8.7a1.245,1.245,0,0,0,1.243-1.243V3.487A1.245,1.245,0,0,0,19.027,2.243Zm-7.46.622h7.46a.622.622,0,0,1,.622.622V4.73H13.09a1.554,1.554,0,0,0-1.523-1.865c-.027,0-.052.007-.079.008l0-.008ZM4.108,4.73a.622.622,0,0,1,1.085-.414L5.656,3.9a1.242,1.242,0,0,0-.61-.368c0-.016-.006-.03-.006-.046a.934.934,0,0,1,.932-.932.924.924,0,0,1,.7.327,2.481,2.481,0,0,0-.078.606h.622a1.861,1.861,0,0,1,3.667-.456,1.551,1.551,0,0,0-.869,1.388h.622a.932.932,0,1,1,.932.932H8.052A5.189,5.189,0,0,0,4.575,5.33a.617.617,0,0,1-.467-.6ZM1.622,10.324a4.662,4.662,0,1,1,4.662,4.662A4.668,4.668,0,0,1,1.622,10.324Zm5.595,8.7a.622.622,0,0,1-.622.622H5.973a.622.622,0,0,1-.622-.622V15.521a5.021,5.021,0,0,0,1.865,0Zm4.005-6.838h7.184v-.622H11.414a5.255,5.255,0,0,0,.114-.622h4.391V6.595H10.946V7.843a5.318,5.318,0,0,0-1.672-1.87h2.293A1.547,1.547,0,0,0,12.8,5.351h6.846V15.919H9.7V14.346A5.3,5.3,0,0,0,11.221,12.189Zm.346-1.865V7.216H15.3v3.108Zm7.46,9.324h-8.7a.622.622,0,0,1-.622-.622V16.541h9.946v2.487A.622.622,0,0,1,19.027,19.649Z" fill="#172b4d"/>
    <path id="Path_2081" data-name="Path 2081" d="M42.932,53a.932.932,0,1,0,.932.932A.934.934,0,0,0,42.932,53Zm0,1.243a.311.311,0,1,1,.311-.311A.311.311,0,0,1,42.932,54.243Z" transform="translate(-28.257 -35.838)" fill="#172b4d"/>
    <path id="Path_2082" data-name="Path 2082" d="M51,19h1.865v.622H51Z" transform="translate(-34.459 -12.405)" fill="#172b4d"/>
    <path id="Path_2083" data-name="Path 2083" d="M51,23h.622v.622H51Z" transform="translate(-34.459 -15.162)" fill="#172b4d"/>
    <path id="Path_2084" data-name="Path 2084" d="M55,23h.622v.622H55Z" transform="translate(-37.216 -15.162)" fill="#172b4d"/>
    <path id="Path_2085" data-name="Path 2085" d="M51,27h1.865v.622H51Z" transform="translate(-34.459 -17.919)" fill="#172b4d"/>
    <path id="Path_2086" data-name="Path 2086" d="M51,31h1.865v.622H51Z" transform="translate(-34.459 -20.676)" fill="#172b4d"/>
    <path id="Path_2087" data-name="Path 2087" d="M33,39h7.46v.622H33Z" transform="translate(-22.054 -26.189)" fill="#172b4d"/>
    <path id="Path_2088" data-name="Path 2088" d="M55,43h.622v.622H55Z" transform="translate(-37.216 -28.946)" fill="#172b4d"/>
    <path id="Path_2089" data-name="Path 2089" d="M51,43h.622v.622H51Z" transform="translate(-34.459 -28.946)" fill="#172b4d"/>
    <path id="Path_2090" data-name="Path 2090" d="M33,43h4.973v.622H33Z" transform="translate(-22.054 -28.946)" fill="#172b4d"/>
  </g>
</svg>
