<svg class='svg-hover' xmlns="http://www.w3.org/2000/svg" width="19.271" height="19.271" viewBox="0 0 19.271 19.271">
  <g id="info_2_" data-name="info (2)" opacity="0.8">
    <g id="Group_18" data-name="Group 18">
      <g id="Group_17" data-name="Group 17">
        <path id="Path_2027" data-name="Path 2027" d="M9.635,0a9.635,9.635,0,1,0,9.635,9.635A9.63,9.63,0,0,0,9.635,0Zm0,17.986a8.351,8.351,0,1,1,8.351-8.351A8.36,8.36,0,0,1,9.635,17.986Z" fill="#0f0f0f"/>
      </g>
    </g>
    <g id="Group_20" data-name="Group 20" transform="translate(8.993 7.896)">
      <g id="Group_19" data-name="Group 19">
        <path id="Path_2028" data-name="Path 2028" d="M239.572,209.777a.642.642,0,0,0-.642.642v5.419a.642.642,0,0,0,1.285,0v-5.419A.642.642,0,0,0,239.572,209.777Z" transform="translate(-238.93 -209.777)" fill="#0f0f0f"/>
      </g>
    </g>
    <g id="Group_22" data-name="Group 22" transform="translate(8.351 4.672)">
      <g id="Group_21" data-name="Group 21">
        <path id="Path_2029" data-name="Path 2029" d="M223.152,124.122a1.285,1.285,0,1,0,1.285,1.285A1.286,1.286,0,0,0,223.152,124.122Z" transform="translate(-221.867 -124.122)" fill="#0f0f0f"/>
      </g>
    </g>
  </g>
</svg>
