<svg xmlns="http://www.w3.org/2000/svg" width="19.261" height="19.271" viewBox="0 0 19.261 19.271">
  <g id="process_1_" data-name="process (1)" transform="translate(-0.115 0.001)">
    <g id="Group_3338" data-name="Group 3338" transform="translate(0.115 -0.001)">
      <g id="Group_3337" data-name="Group 3337" transform="translate(0 0)">
        <path id="Path_2069" data-name="Path 2069" d="M8.24,3.453l-.562-.248c-.025-.094-.053-.184-.084-.27L7.906,2.4a.322.322,0,0,0,0-.318,4.272,4.272,0,0,0-.547-.765.32.32,0,0,0-.312-.1l-.591.135q-.1-.082-.216-.159L6.186.567A.322.322,0,0,0,6,.3a4.085,4.085,0,0,0-.881-.3.32.32,0,0,0-.31.1L4.4.592H4.149L3.737.113a.32.32,0,0,0-.31-.1,4.09,4.09,0,0,0-.881.3A.322.322,0,0,0,2.36.567L2.3,1.192c-.074.051-.147.1-.216.159L1.5,1.216a.319.319,0,0,0-.312.1,4.265,4.265,0,0,0-.547.765.322.322,0,0,0,0,.318l.312.537c-.031.086-.058.175-.084.27l-.562.248a.322.322,0,0,0-.192.294v.874a.322.322,0,0,0,.192.294l.562.248c.025.094.053.184.084.27L.64,5.971a.322.322,0,0,0,0,.318,4.272,4.272,0,0,0,.547.765.32.32,0,0,0,.312.1l.591-.135q.1.082.216.159L2.36,7.8a.322.322,0,0,0,.185.262,4.085,4.085,0,0,0,.881.3.321.321,0,0,0,.31-.1l.412-.479H4.4l.412.479a.321.321,0,0,0,.244.112.314.314,0,0,0,.066-.007A4.09,4.09,0,0,0,6,8.065.322.322,0,0,0,6.186,7.8l.057-.625c.074-.051.147-.1.216-.159l.591.135a.32.32,0,0,0,.312-.1,4.265,4.265,0,0,0,.547-.765.322.322,0,0,0,0-.318l-.312-.537c.031-.086.058-.175.084-.27l.562-.248a.322.322,0,0,0,.192-.294V3.747A.321.321,0,0,0,8.24,3.453Zm-.452.959-.514.227a.322.322,0,0,0-.184.222,2.957,2.957,0,0,1-.149.477.322.322,0,0,0,.019.285l.294.507A3.649,3.649,0,0,1,7,6.482l-.556-.127a.319.319,0,0,0-.285.072,2.936,2.936,0,0,1-.395.292.321.321,0,0,0-.151.244l-.054.59a3.559,3.559,0,0,1-.393.134l-.381-.442a.322.322,0,0,0-.244-.112H4a.322.322,0,0,0-.244.112l-.381.442a3.564,3.564,0,0,1-.394-.134L2.93,6.963a.322.322,0,0,0-.151-.244,2.9,2.9,0,0,1-.394-.292A.319.319,0,0,0,2.1,6.355l-.556.127a3.656,3.656,0,0,1-.252-.352l.294-.507A.322.322,0,0,0,1.6,5.338a2.958,2.958,0,0,1-.149-.477.322.322,0,0,0-.184-.222L.759,4.412V3.957l.514-.227a.322.322,0,0,0,.184-.222A2.958,2.958,0,0,1,1.6,3.031a.322.322,0,0,0-.019-.285l-.294-.507a3.648,3.648,0,0,1,.252-.352l.556.127a.32.32,0,0,0,.285-.072,2.936,2.936,0,0,1,.395-.292.321.321,0,0,0,.151-.244l.054-.59A3.559,3.559,0,0,1,3.377.682l.381.442A.322.322,0,0,0,4,1.235h.542a.322.322,0,0,0,.244-.112L5.169.682a3.565,3.565,0,0,1,.394.134l.054.591a.322.322,0,0,0,.151.244,2.9,2.9,0,0,1,.394.292.32.32,0,0,0,.285.072L7,1.887a3.649,3.649,0,0,1,.252.352l-.294.507a.322.322,0,0,0-.019.285,2.957,2.957,0,0,1,.149.477.322.322,0,0,0,.184.222l.514.227v.455Z" transform="translate(-0.115 -0.001)" fill="#2e3192"/>
      </g>
    </g>
    <g id="Group_3340" data-name="Group 3340" transform="translate(2.021 1.93)">
      <g id="Group_3339" data-name="Group 3339">
        <path id="Path_2070" data-name="Path 2070" d="M49.744,48.005A2.253,2.253,0,1,0,52,50.258,2.253,2.253,0,0,0,49.744,48.005Zm0,3.861a1.609,1.609,0,1,1,1.609-1.609A1.609,1.609,0,0,1,49.744,51.866Z" transform="translate(-47.491 -48.005)" fill="#2e3192"/>
      </g>
    </g>
    <g id="Group_3342" data-name="Group 3342" transform="translate(12.339 -0.001)">
      <g id="Group_3341" data-name="Group 3341" transform="translate(0 0)">
        <path id="Path_2071" data-name="Path 2071" d="M310.853,2.88l-.444-.2c-.017-.062-.036-.122-.056-.18l.248-.427a.323.323,0,0,0,0-.319,3.636,3.636,0,0,0-.463-.647.32.32,0,0,0-.311-.1l-.468.107q-.069-.054-.141-.1l-.045-.5a.321.321,0,0,0-.185-.263,3.483,3.483,0,0,0-.746-.25.32.32,0,0,0-.31.1l-.327.38h-.157l-.327-.38a.319.319,0,0,0-.31-.1,3.482,3.482,0,0,0-.746.25.321.321,0,0,0-.185.263l-.045.5q-.073.05-.141.1l-.468-.107a.32.32,0,0,0-.311.1,3.614,3.614,0,0,0-.463.647.322.322,0,0,0,0,.318l.247.426q-.03.087-.056.18l-.444.2a.322.322,0,0,0-.192.294V3.9a.322.322,0,0,0,.192.294l.444.2c.017.062.036.122.056.18L304.452,5a.323.323,0,0,0,0,.319,3.635,3.635,0,0,0,.463.647.32.32,0,0,0,.312.1l.467-.107c.046.036.093.071.142.1l.045.5a.321.321,0,0,0,.185.263,3.484,3.484,0,0,0,.746.25.321.321,0,0,0,.31-.1l.327-.38h.157l.327.38a.321.321,0,0,0,.244.112.314.314,0,0,0,.066-.007,3.481,3.481,0,0,0,.746-.25.321.321,0,0,0,.185-.263l.045-.5q.073-.05.141-.1l.468.107a.32.32,0,0,0,.311-.1,3.638,3.638,0,0,0,.463-.647.323.323,0,0,0,0-.319l-.248-.427c.02-.058.039-.118.056-.18l.444-.2a.321.321,0,0,0,.192-.294V3.175A.321.321,0,0,0,310.853,2.88Zm-.452.813-.4.175a.321.321,0,0,0-.184.223,2.4,2.4,0,0,1-.121.388.323.323,0,0,0,.019.285l.229.395q-.078.121-.168.235l-.431-.1a.318.318,0,0,0-.284.072,2.384,2.384,0,0,1-.321.237.322.322,0,0,0-.151.244l-.042.459c-.086.034-.173.063-.26.088L308,6.055a.322.322,0,0,0-.244-.112H307.3a.322.322,0,0,0-.244.112l-.295.342c-.086-.024-.173-.054-.26-.088l-.042-.459a.322.322,0,0,0-.151-.244,2.359,2.359,0,0,1-.321-.237A.324.324,0,0,0,305.7,5.3l-.431.1c-.06-.076-.116-.154-.168-.235l.229-.395a.323.323,0,0,0,.019-.285,2.4,2.4,0,0,1-.121-.388.321.321,0,0,0-.184-.223l-.4-.175V3.384l.4-.175a.321.321,0,0,0,.184-.223,2.423,2.423,0,0,1,.121-.389.322.322,0,0,0-.019-.285l-.229-.395c.052-.08.107-.159.167-.235l.431.1a.32.32,0,0,0,.284-.072,2.382,2.382,0,0,1,.321-.237.322.322,0,0,0,.151-.244L306.5.769c.086-.034.173-.063.26-.088l.295.342a.322.322,0,0,0,.244.112h.452A.322.322,0,0,0,308,1.023l.295-.342c.086.024.173.054.26.088l.042.459a.322.322,0,0,0,.151.244,2.384,2.384,0,0,1,.321.237.319.319,0,0,0,.284.072l.431-.1q.09.114.168.235l-.229.395a.323.323,0,0,0-.019.285,2.4,2.4,0,0,1,.121.388A.321.321,0,0,0,310,3.21l.4.175Z" transform="translate(-304.007 0.001)" fill="#2e3192"/>
      </g>
    </g>
    <g id="Group_3344" data-name="Group 3344" transform="translate(14.249 1.93)">
      <g id="Group_3343" data-name="Group 3343">
        <path id="Path_2072" data-name="Path 2072" d="M353.1,48.005a1.609,1.609,0,1,0,1.609,1.609A1.609,1.609,0,0,0,353.1,48.005Zm0,2.574a.965.965,0,1,1,.965-.965A.965.965,0,0,1,353.1,50.579Z" transform="translate(-351.491 -48.005)" fill="#2e3192"/>
      </g>
    </g>
    <g id="Group_3346" data-name="Group 3346" transform="translate(9.78 9.69)">
      <g id="Group_3345" data-name="Group 3345">
        <path id="Path_2073" data-name="Path 2073" d="M249.727,244.843l-.466-.1c-.019-.081-.041-.162-.065-.242l.358-.321a.322.322,0,0,0,.081-.366,4.836,4.836,0,0,0-.591-1.012.323.323,0,0,0-.358-.112l-.45.148c-.057-.061-.117-.12-.177-.177l.148-.449a.322.322,0,0,0-.112-.357,4.816,4.816,0,0,0-1.013-.592.323.323,0,0,0-.366.081l-.321.358c-.08-.024-.161-.046-.242-.065l-.1-.466a.322.322,0,0,0-.315-.255h-1.1a.322.322,0,0,0-.315.255l-.1.466c-.081.019-.162.041-.242.065l-.321-.358a.323.323,0,0,0-.366-.081,4.834,4.834,0,0,0-1.012.591.322.322,0,0,0-.112.358l.148.45c-.061.057-.12.117-.177.177l-.449-.148a.324.324,0,0,0-.357.112,4.816,4.816,0,0,0-.592,1.013.322.322,0,0,0,.081.366l.358.321c-.025.08-.046.161-.065.242l-.466.1a.322.322,0,0,0-.255.315v1.1a.322.322,0,0,0,.255.315l.466.1c.019.081.041.162.065.242l-.358.321a.322.322,0,0,0-.081.366,4.835,4.835,0,0,0,.591,1.012.323.323,0,0,0,.358.112l.45-.148c.057.061.117.12.177.177l-.148.449a.322.322,0,0,0,.112.357,4.816,4.816,0,0,0,1.013.592.321.321,0,0,0,.366-.081l.321-.358c.08.024.161.046.242.065l.1.466a.322.322,0,0,0,.315.256h1.1a.322.322,0,0,0,.315-.256l.1-.466c.081-.019.162-.041.242-.065l.321.358a.321.321,0,0,0,.366.081,4.836,4.836,0,0,0,1.012-.591.322.322,0,0,0,.112-.358l-.148-.45c.061-.057.12-.117.177-.177l.449.148a.323.323,0,0,0,.357-.112,4.817,4.817,0,0,0,.592-1.013.322.322,0,0,0-.081-.366l-.358-.321c.024-.08.046-.161.065-.242l.466-.1a.322.322,0,0,0,.255-.315v-1.1A.322.322,0,0,0,249.727,244.843Zm-.388,1.151-.416.088a.322.322,0,0,0-.25.258,3.5,3.5,0,0,1-.151.561.322.322,0,0,0,.088.348l.338.3a4.228,4.228,0,0,1-.284.485l-.425-.14a.323.323,0,0,0-.346.1,3.514,3.514,0,0,1-.412.412.322.322,0,0,0-.1.346l.14.425a4.2,4.2,0,0,1-.485.284l-.3-.338a.323.323,0,0,0-.349-.088,3.467,3.467,0,0,1-.56.151.322.322,0,0,0-.258.25l-.088.416H244.9l-.088-.416a.322.322,0,0,0-.258-.25,3.5,3.5,0,0,1-.561-.151h0a.324.324,0,0,0-.348.088l-.3.338a4.23,4.23,0,0,1-.485-.284l.14-.425a.322.322,0,0,0-.1-.346,3.515,3.515,0,0,1-.412-.412.323.323,0,0,0-.346-.1l-.425.14a4.2,4.2,0,0,1-.284-.485l.338-.3a.322.322,0,0,0,.088-.349,3.464,3.464,0,0,1-.151-.56.322.322,0,0,0-.25-.258l-.416-.088v-.575l.416-.088a.322.322,0,0,0,.25-.258,3.5,3.5,0,0,1,.151-.561.322.322,0,0,0-.088-.348l-.338-.3a4.228,4.228,0,0,1,.284-.485l.425.14a.323.323,0,0,0,.346-.1,3.513,3.513,0,0,1,.412-.412.322.322,0,0,0,.1-.346l-.14-.425a4.2,4.2,0,0,1,.485-.284l.3.338a.323.323,0,0,0,.349.088,3.465,3.465,0,0,1,.56-.151.322.322,0,0,0,.258-.25l.088-.416h.575l.088.416a.322.322,0,0,0,.258.25,3.5,3.5,0,0,1,.561.151.322.322,0,0,0,.348-.088l.3-.338a4.225,4.225,0,0,1,.485.284l-.14.425a.322.322,0,0,0,.1.346,3.516,3.516,0,0,1,.412.412.325.325,0,0,0,.346.1l.425-.14a4.206,4.206,0,0,1,.284.485l-.338.3a.322.322,0,0,0-.088.349,3.465,3.465,0,0,1,.151.56.322.322,0,0,0,.25.258l.416.088Z" transform="translate(-240.402 -240.916)" fill="#2e3192"/>
      </g>
    </g>
    <g id="Group_3348" data-name="Group 3348" transform="translate(11.674 11.584)">
      <g id="Group_3347" data-name="Group 3347">
        <path id="Path_2074" data-name="Path 2074" d="M290.387,288.005a2.9,2.9,0,1,0,2.9,2.9A2.9,2.9,0,0,0,290.387,288.005Zm0,5.149a2.253,2.253,0,1,1,2.253-2.252A2.255,2.255,0,0,1,290.387,293.154Z" transform="translate(-287.491 -288.005)" fill="#2e3192"/>
      </g>
    </g>
    <g id="Group_3350" data-name="Group 3350" transform="translate(9.1 3.539)">
      <g id="Group_3349" data-name="Group 3349">
        <rect id="Rectangle_1727" data-name="Rectangle 1727" width="2.574" height="0.644" fill="#2e3192"/>
      </g>
    </g>
    <g id="Group_3352" data-name="Group 3352" transform="translate(1.699 8.688)">
      <g id="Group_3351" data-name="Group 3351">
        <path id="Path_2075" data-name="Path 2075" d="M46.866,221.348a.322.322,0,0,0-.169-.169h0l-2.253-.965a.322.322,0,0,0-.448.3v.644H40.135V216h-.644v5.47a.322.322,0,0,0,.321.322H44v.644a.322.322,0,0,0,.321.322h0a.317.317,0,0,0,.127-.026l2.253-.965A.322.322,0,0,0,46.866,221.348Zm-2.227.6V221l1.114.477Z" transform="translate(-39.491 -216.004)" fill="#2e3192"/>
      </g>
    </g>
    <g id="Group_3354" data-name="Group 3354" transform="translate(13.056 13.308)">
      <g id="Group_3353" data-name="Group 3353">
        <path id="Path_2076" data-name="Path 2076" d="M324.389,330.88l-1.383,1.66-.716-.716-.455.455.965.965a.32.32,0,0,0,.228.094h.014a.322.322,0,0,0,.233-.115l1.609-1.931Z" transform="translate(-321.834 -330.88)" fill="#2e3192"/>
      </g>
    </g>
  </g>
</svg>
