<svg xmlns="http://www.w3.org/2000/svg" width="19.271" height="19.271" viewBox="0 0 19.271 19.271">
  <g id="settings" transform="translate(0)">
    <g id="Group_3357" data-name="Group 3357" transform="translate(0 0)">
      <path id="Path_2128" data-name="Path 2128" d="M146.1,145.45a.376.376,0,1,0-.313.684,3.622,3.622,0,1,1-2.958-.024.376.376,0,1,0-.3-.689,4.375,4.375,0,1,0,3.573.029Z" transform="translate(-134.642 -139.918)" fill="#2e3192"/>
      <path id="Path_2129" data-name="Path 2129" d="M18.953,8.112l-1.731-.273a.547.547,0,0,1-.4-.378,7.519,7.519,0,0,0-.568-1.371.548.548,0,0,1,.014-.55L17.3,4.124a.376.376,0,0,0-.038-.488L15.634,2.008a.376.376,0,0,0-.487-.038L13.73,3a.548.548,0,0,1-.55.014,7.457,7.457,0,0,0-1.371-.568.547.547,0,0,1-.377-.4L11.158.318A.376.376,0,0,0,10.786,0h-2.3a.376.376,0,0,0-.372.318L7.839,2.048a.547.547,0,0,1-.377.4,7.464,7.464,0,0,0-1.371.568A.549.549,0,0,1,5.541,3L4.124,1.97a.376.376,0,0,0-.487.038L2.008,3.636a.376.376,0,0,0-.038.487L3,5.541a.548.548,0,0,1,.014.55,7.464,7.464,0,0,0-.568,1.371.547.547,0,0,1-.4.377L.318,8.112A.376.376,0,0,0,0,8.484v2.3a.376.376,0,0,0,.318.372l1.731.273a.547.547,0,0,1,.4.377,7.46,7.46,0,0,0,.568,1.371A.548.548,0,0,1,3,13.73L1.97,15.147a.376.376,0,0,0,.038.487l1.628,1.628a.376.376,0,0,0,.488.038L5.541,16.27a.549.549,0,0,1,.55-.014,7.518,7.518,0,0,0,1.37.568.547.547,0,0,1,.377.4l.273,1.731a.376.376,0,0,0,.372.318h2.3a.376.376,0,0,0,.372-.318l.273-1.731a.547.547,0,0,1,.377-.4,7.513,7.513,0,0,0,1.371-.568.548.548,0,0,1,.55.014L15.147,17.3a.376.376,0,0,0,.488-.038l1.628-1.628a.376.376,0,0,0,.038-.488L16.27,13.73a.549.549,0,0,1-.014-.55,7.509,7.509,0,0,0,.568-1.371.547.547,0,0,1,.4-.377l1.731-.273a.376.376,0,0,0,.318-.372v-2.3a.376.376,0,0,0-.318-.372Zm-.435,2.353-1.425.225-.02,0a1.3,1.3,0,0,0-.97.9,6.757,6.757,0,0,1-.51,1.232,1.3,1.3,0,0,0,.05,1.323l.012.017L16.5,15.33,15.33,16.5l-1.166-.848-.017-.012a1.3,1.3,0,0,0-1.322-.05,6.755,6.755,0,0,1-1.233.511,1.3,1.3,0,0,0-.9.97c0,.007,0,.013,0,.02l-.225,1.425H8.806l-.225-1.425c0-.007,0-.013,0-.02a1.3,1.3,0,0,0-.9-.97,6.764,6.764,0,0,1-1.232-.51,1.3,1.3,0,0,0-1.323.05l-.017.012L3.941,16.5,2.768,15.33l.848-1.166.011-.017a1.3,1.3,0,0,0,.051-1.323,6.7,6.7,0,0,1-.51-1.233,1.3,1.3,0,0,0-.97-.9l-.02,0L.753,10.465V8.806l1.425-.225.02,0a1.3,1.3,0,0,0,.97-.9,6.709,6.709,0,0,1,.51-1.232,1.3,1.3,0,0,0-.051-1.323l-.011-.017L2.768,3.941,3.941,2.768l1.166.848.017.011a1.3,1.3,0,0,0,1.323.051,6.708,6.708,0,0,1,1.232-.51,1.3,1.3,0,0,0,.9-.97q0-.01,0-.02L8.806.753h1.659l.225,1.425q0,.01,0,.02a1.3,1.3,0,0,0,.9.97,6.7,6.7,0,0,1,1.233.51,1.3,1.3,0,0,0,1.323-.051l.017-.011,1.166-.848L16.5,3.941l-.848,1.166-.012.017a1.3,1.3,0,0,0-.05,1.322A6.763,6.763,0,0,1,16.1,7.679a1.3,1.3,0,0,0,.97.9l.02,0,1.425.225Z" transform="translate(0 0)" fill="#2e3192"/>
      <path id="Path_2130" data-name="Path 2130" d="M247.062,137.035a.376.376,0,1,0,.154-.467A.379.379,0,0,0,247.062,137.035Z" transform="translate(-237.737 -131.378)" fill="#2e3192"/>
    </g>
  </g>
</svg>
