<svg xmlns="http://www.w3.org/2000/svg" width="19" height="19" viewBox="0 0 19 19">
  <g id="statistics" opacity="0.8">
    <g id="Group_3356" data-name="Group 3356">
      <g id="Group_3355" data-name="Group 3355">
        <rect id="Rectangle_1728" data-name="Rectangle 1728" width="19" height="1" transform="translate(0 18)" fill="#172b4d"/>
        <path id="Path_2121" data-name="Path 2121" d="M24.322,294.444h3.222a.322.322,0,0,0,.322-.322v-5.8a.322.322,0,0,0-.322-.322H24.322a.322.322,0,0,0-.322.322v5.8A.322.322,0,0,0,24.322,294.444Zm.322-5.8h2.578V293.8H24.644Z" transform="translate(-23.033 -276.401)" fill="#172b4d"/>
        <path id="Path_2122" data-name="Path 2122" d="M248.322,202.31h3.222a.322.322,0,0,0,.322-.322v-9.666a.322.322,0,0,0-.322-.322h-3.222a.322.322,0,0,0-.322.322v9.666A.322.322,0,0,0,248.322,202.31Zm.322-9.666h2.578v9.021h-2.578Z" transform="translate(-238.012 -184.267)" fill="#172b4d"/>
        <path id="Path_2123" data-name="Path 2123" d="M136.322,110.176h3.222a.322.322,0,0,0,.322-.322V96.322a.322.322,0,0,0-.322-.322h-3.222a.322.322,0,0,0-.322.322v13.532A.322.322,0,0,0,136.322,110.176Zm.322-13.532h2.578v12.888h-2.578Z" transform="translate(-130.523 -92.134)" fill="#172b4d"/>
        <path id="Path_2124" data-name="Path 2124" d="M360.322,18.043h3.222a.322.322,0,0,0,.322-.322V.322A.322.322,0,0,0,363.544,0h-3.222A.322.322,0,0,0,360,.322v17.4A.322.322,0,0,0,360.322,18.043Zm.322-17.4h2.578V17.4h-2.578Z" transform="translate(-345.501)" fill="#172b4d"/>
      </g>
    </g>
  </g>
</svg>
