<svg xmlns="http://www.w3.org/2000/svg" width="19.271" height="20.16" viewBox="0 0 19.271 20.16">
  <g id="user" transform="translate(-11.328)">
    <g id="Group_3359" data-name="Group 3359" transform="translate(11.328 10.106)">
      <g id="Group_3358" data-name="Group 3358" transform="translate(0)">
        <path id="Path_2131" data-name="Path 2131" d="M20.963,257.323a9.646,9.646,0,0,0-9.635,9.635.419.419,0,1,0,.838,0,8.8,8.8,0,1,1,17.595,0,.419.419,0,1,0,.838,0A9.646,9.646,0,0,0,20.963,257.323Z" transform="translate(-11.328 -257.323)" fill="#2e3192"/>
      </g>
    </g>
    <g id="Group_3361" data-name="Group 3361" transform="translate(16.355)">
      <g id="Group_3360" data-name="Group 3360">
        <path id="Path_2132" data-name="Path 2132" d="M143.936,0a4.608,4.608,0,1,0,4.608,4.608A4.614,4.614,0,0,0,143.936,0Zm0,8.378a3.77,3.77,0,1,1,3.77-3.77A3.775,3.775,0,0,1,143.936,8.378Z" transform="translate(-139.328)" fill="#2e3192"/>
      </g>
    </g>
  </g>
</svg>
