<svg id="info_3_" data-name="info (3)" xmlns="http://www.w3.org/2000/svg" width="18" height="18" viewBox="0 0 18 18">
  <g id="Group_3764" data-name="Group 3764">
    <path id="Path_2150" data-name="Path 2150" d="M9,18a9,9,0,1,1,9-9A9.01,9.01,0,0,1,9,18ZM9,.692A8.308,8.308,0,1,0,17.308,9,8.317,8.317,0,0,0,9,.692Z" fill="#2e3192"/>
  </g>
  <g id="Group_3766" data-name="Group 3766" transform="translate(8.124 3.573)">
    <g id="Group_3765" data-name="Group 3765">
      <path id="Path_2151" data-name="Path 2151" d="M192.522,84.786a.876.876,0,0,1-1.752,0,.861.861,0,0,1,.883-.883A.839.839,0,0,1,192.522,84.786Zm-1.574,9.96V86.971h1.413v7.775Z" transform="translate(-190.77 -83.903)" fill="#2e3192"/>
    </g>
  </g>
</svg>
